# xmcd
#
# Track frame offsets: 
#        150
#        27562
#        43994
#        66692
#        90888
#        124144
#        137633
#        158006
#        172641
#        189754
#
# Disc length: 2766 seconds
#
# Revision: 0
# Processed by: cddbd v1.5.2PL0 Copyright (c) Steve Scherf et al.
# Submitted via: ExactAudioCopy v1.0b4
#
DISCID=7e0acc0a
DTITLE=Jesse Davey - Big Blues
DYEAR=2015
DGENRE=Blues
TTITLE0=How Blue Can You Get (feat. Hugh Coltman)
TTITLE1=Rain on My Pillow (feat. Pete Gage)
TTITLE2=Scrub Jay Blues
TTITLE3=Made It on My Own (feat. Pete Gage)
TTITLE4=Big Blues (feat. Ian Siegal)
TTITLE5=The Crow (feat. Pete Gage)
TTITLE6=The Revelator (feat. Ash Wilson)
TTITLE7=Fast Boy
TTITLE8=Chain Smokin' (feat. Pete Gage)
TTITLE9=Can't Get It Together (feat. Ian Siegal)
EXTD=
EXTT0=
EXTT1=
EXTT2=
EXTT3=
EXTT4=
EXTT5=
EXTT6=
EXTT7=
EXTT8=
EXTT9=
PLAYORDER=
